<svg width="24" height="24" viewBox="0 0 24 24" fill="none" xmlns="http://www.w3.org/2000/svg">
<path d="M8.20679 24C9.11329 24 9.84815 23.2325 9.84815 22.2857C9.84815 21.3389 9.11329 20.5714 8.20679 20.5714C7.30029 20.5714 6.56543 21.3389 6.56543 22.2857C6.56543 23.2325 7.30029 24 8.20679 24Z" fill="white"/>
<path d="M19.696 24C20.6025 24 21.3374 23.2325 21.3374 22.2857C21.3374 21.3389 20.6025 20.5714 19.696 20.5714C18.7896 20.5714 18.0547 21.3389 18.0547 22.2857C18.0547 23.2325 18.7896 24 19.696 24Z" fill="white"/>
<path d="M4.08699 0.689143C4.04982 0.494906 3.94938 0.32011 3.80276 0.194474C3.65614 0.068839 3.47238 0.000119626 3.28272 0H0V1.71429H2.60977L5.76118 18.168C5.79835 18.3622 5.89879 18.537 6.04541 18.6627C6.19204 18.7883 6.3758 18.857 6.56545 18.8571H21.3377V17.1429H7.23841L6.58186 13.7143H21.3377C21.5244 13.7143 21.7055 13.6477 21.8511 13.5257C21.9967 13.4037 22.0982 13.2335 22.1387 13.0431L24 4.28571H22.3201L20.6795 12H6.25359L4.08699 0.689143Z" fill="white"/>
<path d="M14.7722 3.42857V0H13.1309V3.42857H9.84814V5.14286H13.1309V8.57143H14.7722V5.14286H18.055V3.42857H14.7722Z" fill="white"/>
</svg>
